<svg width="43" height="43" viewBox="0 0 43 43" fill="none" xmlns="http://www.w3.org/2000/svg">
<path d="M15.6146 0.0774613C16.1645 0.227053 16.6326 0.588879 16.9159 1.08342C17.1992 1.57795 17.2745 2.16473 17.1253 2.71479L16.4517 5.18013C15.735 7.80599 16.4603 10.6125 18.3551 12.5647C20.4478 14.7233 23.6585 15.3654 26.4248 14.1815L27.2475 13.8289C28.0684 13.4782 28.8095 12.9646 29.4259 12.3191C30.0423 11.6736 30.5213 10.9096 30.8337 10.0735C31.2977 8.84205 31.5347 7.5367 31.5332 6.22073V5.73339C31.5332 5.16318 31.7597 4.61632 32.1629 4.21312C32.5661 3.80991 33.113 3.58339 33.6832 3.58339C34.2534 3.58339 34.8003 3.80991 35.2035 4.21312C35.6067 4.61632 35.8332 5.16318 35.8332 5.73339V6.22073C35.8332 8.05253 35.5035 9.86999 34.8585 11.5843C33.9085 14.1245 32.045 16.2189 29.6326 17.4581L29.4233 17.5899C28.5955 18.1214 27.9289 18.8693 27.4959 19.7526C27.0628 20.6359 26.8798 21.6209 26.9666 22.6009L27.3364 26.683C27.3937 26.9391 27.4339 27.199 27.4568 27.4627L28.6579 40.6551C28.7096 41.2231 28.5336 41.7883 28.1686 42.2264C27.8035 42.6646 27.2794 42.9398 26.7115 42.9915C26.1435 43.0432 25.5783 42.8671 25.1402 42.5021C24.702 42.1371 24.4268 41.6129 24.3751 41.045L23.1769 27.8497C23.1599 27.6821 23.1183 27.5179 23.0536 27.3624C22.9492 27.1581 22.8049 26.9769 22.6293 26.8292C22.4651 26.6679 22.2701 26.5411 22.056 26.4565L22.0101 26.4422C21.6914 26.3487 21.3514 26.3564 21.0372 26.4642C20.723 26.572 20.4499 26.7747 20.2557 27.0442L17.4693 30.8769C16.8673 31.7037 16.5796 32.7181 16.6581 33.7379L17.1941 40.6867C17.2375 41.2554 17.0531 41.818 16.6816 42.2507C16.3102 42.6835 15.782 42.951 15.2133 42.9943C14.6446 43.0377 14.082 42.8533 13.6492 42.4818C13.2164 42.1103 12.9489 41.5822 12.9056 41.0135L12.3724 34.0675C12.2154 32.0293 12.7896 30.0018 13.9921 28.3485L16.7785 24.5158C17.1425 24.017 17.4349 23.4551 17.4951 22.8388L17.7302 20.4824C17.9022 18.7653 16.9763 17.1628 15.7092 15.9903C14.1052 14.501 12.9398 12.6008 12.3394 10.496C11.739 8.39113 11.7267 6.16205 12.3036 4.05066L12.9744 1.58533C13.1246 1.03527 13.4871 0.567397 13.9822 0.28462C14.4774 0.00184324 15.0645 -0.0726734 15.6146 0.0774613ZM23.6499 11.8251C24.7903 11.8251 25.884 11.372 26.6904 10.5656C27.4968 9.75921 27.9499 8.66549 27.9499 7.52506C27.9499 6.38463 27.4968 5.29091 26.6904 4.4845C25.884 3.6781 24.7903 3.22506 23.6499 3.22506C22.5094 3.22506 21.4157 3.6781 20.6093 4.4845C19.8029 5.29091 19.3499 6.38463 19.3499 7.52506C19.3499 8.66549 19.8029 9.75921 20.6093 10.5656C21.4157 11.372 22.5094 11.8251 23.6499 11.8251ZM6.7738 13.7429C6.72342 13.5042 6.59254 13.2901 6.40308 13.1365C6.21363 12.9828 5.97712 12.899 5.7332 12.899C5.48929 12.899 5.25278 12.9828 5.06333 13.1365C4.87387 13.2901 4.74299 13.5042 4.69261 13.7429L4.39447 15.1303C4.2821 15.6622 4.01779 16.1501 3.63362 16.5348C3.24945 16.9195 2.76191 17.1844 2.23014 17.2975L0.839806 17.5928C0.601146 17.6432 0.387057 17.7741 0.233422 17.9635C0.0797863 18.153 -0.00405788 18.3895 -0.00405788 18.6334C-0.00405788 18.8773 0.0797863 19.1138 0.233422 19.3033C0.387057 19.4927 0.601146 19.6236 0.839806 19.674L2.23014 19.9721C2.76191 20.0852 3.24945 20.3502 3.63362 20.7348C4.01779 21.1195 4.2821 21.6074 4.39447 22.1393L4.69261 23.5268C4.74299 23.7655 4.87387 23.9795 5.06333 24.1332C5.25278 24.2868 5.48929 24.3707 5.7332 24.3707C5.97712 24.3707 6.21363 24.2868 6.40308 24.1332C6.59254 23.9795 6.72342 23.7655 6.7738 23.5268L7.07194 22.1393C7.18431 21.6074 7.44862 21.1195 7.83279 20.7348C8.21696 20.3502 8.7045 20.0852 9.23627 19.9721L10.6266 19.674C10.8653 19.6236 11.0794 19.4927 11.233 19.3033C11.3866 19.1138 11.4705 18.8773 11.4705 18.6334C11.4705 18.3895 11.3866 18.153 11.233 17.9635C11.0794 17.7741 10.8653 17.6432 10.6266 17.5928L9.23627 17.2975C8.7045 17.1844 8.21696 16.9195 7.83279 16.5348C7.44862 16.1501 7.18431 15.6622 7.07194 15.1303L6.7738 13.7429ZM37.2665 20.0667C37.7682 20.0667 38.2011 20.4165 38.3071 20.9095L38.6053 22.297C38.7176 22.8289 38.9819 23.3168 39.3661 23.7015C39.7503 24.0862 40.2378 24.3511 40.7696 24.4642L42.1599 24.7595C42.3986 24.8098 42.6127 24.9407 42.7663 25.1302C42.92 25.3196 43.0038 25.5561 43.0038 25.8001C43.0038 26.044 42.92 26.2805 42.7663 26.4699C42.6127 26.6594 42.3986 26.7903 42.1599 26.8407L40.7696 27.1388C40.2378 27.2519 39.7503 27.5168 39.3661 27.9015C38.9819 28.2862 38.7176 28.7741 38.6053 29.306L38.3071 30.6935C38.2568 30.9321 38.1259 31.1462 37.9364 31.2998C37.747 31.4535 37.5105 31.5373 37.2665 31.5373C37.0226 31.5373 36.7861 31.4535 36.5967 31.2998C36.4072 31.1462 36.2763 30.9321 36.2259 30.6935L35.9278 29.306C35.8154 28.7741 35.5511 28.2862 35.167 27.9015C34.7828 27.5168 34.2952 27.2519 33.7635 27.1388L32.3731 26.8407C32.1345 26.7903 31.9204 26.6594 31.7668 26.4699C31.6131 26.2805 31.5293 26.044 31.5293 25.8001C31.5293 25.5561 31.6131 25.3196 31.7668 25.1302C31.9204 24.9407 32.1345 24.8098 32.3731 24.7595L33.7635 24.4642C34.2952 24.3511 34.7828 24.0862 35.167 23.7015C35.5511 23.3168 35.8154 22.8289 35.9278 22.297L36.2259 20.9095C36.276 20.6708 36.4069 20.4567 36.5964 20.3032C36.786 20.1496 37.0226 20.0661 37.2665 20.0667Z" fill="currentColor"/>
</svg>
