<svg width="34" height="34" viewBox="0 0 34 34" fill="none" xmlns="http://www.w3.org/2000/svg">
<path d="M1.7 8.55346V1.71069L8.5 5.13208L1.7 8.55346ZM27.2 8.55346V1.71069L34 5.13208L27.2 8.55346ZM15.3 6.84277V0L22.1 3.42138L15.3 6.84277ZM11.9 34C10.4267 33.8574 8.98166 33.6436 7.565 33.3585C6.14833 33.0734 4.88013 32.7244 3.7604 32.3115C2.64067 31.8987 1.734 31.4208 1.0404 30.878C0.3468 30.3351 0 29.7364 0 29.0818V13.6855C0 12.9727 0.446533 12.3101 1.3396 11.6977C2.23267 11.0853 3.44363 10.5436 4.9725 10.0726C6.50137 9.60154 8.30053 9.23089 10.37 8.9606C12.4395 8.69031 14.6495 8.5546 17 8.55346C19.3505 8.55232 21.5605 8.68803 23.63 8.9606C25.6995 9.23317 27.4986 9.60382 29.0275 10.0726C30.5564 10.5413 31.7679 11.083 32.6621 11.6977C33.5563 12.3124 34.0023 12.975 34 13.6855V29.0818C34 29.7375 33.6532 30.3363 32.9596 30.878C32.266 31.4197 31.3593 31.8976 30.2396 32.3115C29.1199 32.7255 27.8517 33.0745 26.435 33.3585C25.0183 33.6425 23.5733 33.8563 22.1 34V25.6604H11.9V34ZM17 15.3962C19.7483 15.3962 22.1215 15.232 24.1196 14.9035C26.1177 14.5751 27.7111 14.1976 28.9 13.7711C28.9 13.6285 27.8233 13.2938 25.67 12.7669C23.5167 12.24 20.6267 11.976 17 11.9748C13.3733 11.9737 10.4833 12.2377 8.33 12.7669C6.17667 13.2961 5.1 13.6308 5.1 13.7711C6.29 14.1987 7.88346 14.5768 9.8804 14.9053C11.8773 15.2337 14.2505 15.3974 17 15.3962Z" fill="currentColor"/>
</svg>
