<svg width="34" height="28" viewBox="0 0 34 28" fill="none" xmlns="http://www.w3.org/2000/svg">
<path fill-rule="evenodd" clip-rule="evenodd" d="M3.66666 0.666687C2.78261 0.666687 1.93476 1.01788 1.30964 1.643C0.684518 2.26812 0.333328 3.11597 0.333328 4.00002V24C0.333328 24.8841 0.684518 25.7319 1.30964 26.357C1.93476 26.9822 2.78261 27.3334 3.66666 27.3334H30.3333C31.2174 27.3334 32.0652 26.9822 32.6903 26.357C33.3155 25.7319 33.6667 24.8841 33.6667 24V4.00002C33.6667 3.11597 33.3155 2.26812 32.6903 1.643C32.0652 1.01788 31.2174 0.666687 30.3333 0.666687H3.66666ZM20.3333 9.00002C20.3333 8.55799 20.5089 8.13407 20.8215 7.82151C21.134 7.50895 21.558 7.33335 22 7.33335H27C27.442 7.33335 27.8659 7.50895 28.1785 7.82151C28.4911 8.13407 28.6667 8.55799 28.6667 9.00002C28.6667 9.44205 28.4911 9.86597 28.1785 10.1785C27.8659 10.4911 27.442 10.6667 27 10.6667H22C21.558 10.6667 21.134 10.4911 20.8215 10.1785C20.5089 9.86597 20.3333 9.44205 20.3333 9.00002ZM20.3333 14C20.3333 13.558 20.5089 13.1341 20.8215 12.8215C21.134 12.5089 21.558 12.3334 22 12.3334H27C27.442 12.3334 27.8659 12.5089 28.1785 12.8215C28.4911 13.1341 28.6667 13.558 28.6667 14C28.6667 14.442 28.4911 14.866 28.1785 15.1785C27.8659 15.4911 27.442 15.6667 27 15.6667H22C21.558 15.6667 21.134 15.4911 20.8215 15.1785C20.5089 14.866 20.3333 14.442 20.3333 14ZM20.3333 19C20.3333 18.558 20.5089 18.1341 20.8215 17.8215C21.134 17.5089 21.558 17.3334 22 17.3334H27C27.442 17.3334 27.8659 17.5089 28.1785 17.8215C28.4911 18.1341 28.6667 18.558 28.6667 19C28.6667 19.442 28.4911 19.866 28.1785 20.1785C27.8659 20.4911 27.442 20.6667 27 20.6667H22C21.558 20.6667 21.134 20.4911 20.8215 20.1785C20.5089 19.866 20.3333 19.442 20.3333 19ZM6.99999 10.6667C6.99999 9.3406 7.52678 8.06883 8.46446 7.13115C9.40214 6.19347 10.6739 5.66669 12 5.66669C13.3261 5.66669 14.5978 6.19347 15.5355 7.13115C16.4732 8.06883 17 9.3406 17 10.6667C17 11.9928 16.4732 13.2645 15.5355 14.2022C14.5978 15.1399 13.3261 15.6667 12 15.6667C10.6739 15.6667 9.40214 15.1399 8.46446 14.2022C7.52678 13.2645 6.99999 11.9928 6.99999 10.6667ZM10.2367 17.3334C9.18704 17.333 8.16393 17.6629 7.31229 18.2765C6.46065 18.89 5.82369 19.756 5.49166 20.7517L5.41833 20.9734L5.41166 20.9934C5.34166 21.2034 5.31999 21.2717 5.34166 21.3184C5.35166 21.34 5.37499 21.3567 5.40499 21.3834C5.45833 21.425 5.53833 21.49 5.64833 21.6417C5.80275 21.8558 6.00583 22.0301 6.24082 22.1504C6.47582 22.2706 6.73602 22.3333 6.99999 22.3334H17C17.264 22.3333 17.5242 22.2706 17.7592 22.1504C17.9942 22.0301 18.1972 21.8558 18.3517 21.6417C18.4191 21.5437 18.5012 21.4566 18.595 21.3834C18.6267 21.3567 18.6467 21.34 18.6583 21.3167C18.6817 21.2717 18.6583 21.2034 18.5883 20.9934L18.5817 20.9734L18.5083 20.7517C18.1764 19.7562 17.5397 18.8905 16.6884 18.277C15.8371 17.6635 14.8143 17.3333 13.765 17.3334H10.2367Z" fill="currentColor"/>
</svg>
