<svg width="31" height="41" viewBox="0 0 31 41" fill="none" xmlns="http://www.w3.org/2000/svg">
<path d="M15.4082 40.2363L0.41777 32.5254V0.763672H30.5822V32.5254L15.4082 40.2363ZM1.88652 31.6313L15.4082 38.584L29.1135 31.6295V2.23242H1.88652V31.6313ZM19.1085 16.1782L17.7775 11.9555L21.3392 9.31822L16.9082 9.27875L15.5 5.07262L14.0928 9.27508L9.66172 9.31455L13.2234 11.9519L11.8924 16.1745L15.5009 13.6042L19.1085 16.1782ZM15.3283 25.5947L24.3492 21.015V16.4343L15.3403 21.0076L6.65078 16.538V21.1279L15.3283 25.5947ZM15.3403 28.5928L6.65078 24.1232V28.7131L15.3293 33.1762L24.3501 28.5965V24.0158L15.3403 28.5928Z" fill="currentColor"/>
</svg>
