<svg width="30" height="30" viewBox="0 0 30 30" fill="none" xmlns="http://www.w3.org/2000/svg">
  <path d="M10.4167 13.3929H6.25001V8.03571H2.88889L8.33334 2.78571L13.7778 8.03571H10.4167V13.3929Z" fill="currentColor"/>
  <path d="M22.2084 5.35811C17.9053 5.35811 14.4169 7.21311 14.4169 9.50467C14.4169 11.7962 17.9063 13.6522 22.2084 13.6522C26.5116 13.6522 30 11.7962 30 9.50467C30 7.21311 26.5106 5.35811 22.2084 5.35811ZM30 10.7365C29.9981 13.0281 26.5116 14.8841 22.2084 14.8841C17.9173 14.8841 14.4369 13.0483 14.4169 10.7676V12.3896C14.4169 13.3685 15.0671 14.2648 16.1322 14.9745C17.2092 15.2571 18.1687 15.6495 18.9674 16.1457C19.9577 16.3881 21.0467 16.5361 22.2084 16.5361C26.5116 16.5361 30 14.6811 30 12.3896V10.7365ZM30 13.6214C30 15.913 26.5116 17.769 22.2084 17.769C21.6849 17.769 21.1763 17.7315 20.6816 17.6786C21.0719 18.1844 21.3383 18.7711 21.4605 19.3912C21.7088 19.4048 21.9542 19.421 22.2084 19.421C26.5116 19.421 30 17.5661 30 15.2745V13.6214ZM12.2395 15.9352C7.93637 15.9352 4.44444 17.7911 4.44444 20.0827C4.44444 22.3742 7.93738 24.2302 12.2395 24.2302C16.5427 24.2302 20.0347 22.3742 20.0347 20.0827C20.0347 17.7911 16.5417 15.9352 12.2395 15.9352ZM30 16.5063C29.9981 18.7979 26.5116 20.6539 22.2084 20.6539C21.9571 20.6539 21.7049 20.6366 21.4605 20.6231C21.4495 20.6952 21.4435 20.7914 21.4297 20.8635C21.4794 21.0087 21.5223 21.1521 21.5223 21.3151V22.2771C21.7488 22.2877 21.9761 22.306 22.2084 22.306C26.5116 22.306 30 20.451 30 18.1594V16.5063ZM30 19.3912C29.9981 21.6828 26.5116 23.5388 22.2084 23.5388C21.9571 23.5388 21.7049 23.5215 21.4605 23.508C21.4495 23.5801 21.4435 23.6763 21.4297 23.7484C21.4794 23.8927 21.5223 24.0369 21.5223 24.2V25.1619C21.7488 25.1726 21.9761 25.1909 22.2084 25.1909C26.5116 25.1909 30 23.3359 30 21.0443V19.3912ZM20.0347 21.3141C20.0327 23.6057 16.5427 25.4616 12.2395 25.4616C7.94814 25.4616 4.46437 23.6048 4.44444 21.3444V22.9675C4.44444 25.259 7.93536 27.115 12.2395 27.115C16.5437 27.115 20.0347 25.259 20.0347 22.9675V21.3141ZM20.0347 24.1993C20.0327 26.4909 16.5427 28.3469 12.2395 28.3469C7.94814 28.3469 4.46437 26.4901 4.44444 24.2297V25.8539C4.44444 28.1454 7.93536 30.0014 12.2395 30.0014C16.5437 30.0014 20.0347 28.1454 20.0347 25.8539V24.1993Z" fill="currentColor"/>
</svg>
