<svg width="35" height="35" viewBox="0 0 35 35" fill="none" xmlns="http://www.w3.org/2000/svg">
<path d="M11.6667 10.1835C11.2799 10.1835 10.909 10.3372 10.6355 10.6107C10.362 10.8842 10.2083 11.2551 10.2083 11.6419C10.2083 12.0286 10.362 12.3996 10.6355 12.6731C10.909 12.9466 11.2799 13.1002 11.6667 13.1002H23.3333C23.7201 13.1002 24.0911 12.9466 24.3645 12.6731C24.638 12.3996 24.7917 12.0286 24.7917 11.6419C24.7917 11.2551 24.638 10.8842 24.3645 10.6107C24.0911 10.3372 23.7201 10.1835 23.3333 10.1835H11.6667ZM10.2083 17.5C10.2083 17.1132 10.362 16.7423 10.6355 16.4688C10.909 16.1953 11.2799 16.0417 11.6667 16.0417H23.3333C23.7201 16.0417 24.0911 16.1953 24.3645 16.4688C24.638 16.7423 24.7917 17.1132 24.7917 17.5C24.7917 17.8868 24.638 18.2577 24.3645 18.5312C24.0911 18.8047 23.7201 18.9583 23.3333 18.9583H11.6667C11.2799 18.9583 10.909 18.8047 10.6355 18.5312C10.362 18.2577 10.2083 17.8868 10.2083 17.5ZM11.6667 21.8998C11.2799 21.8998 10.909 22.0534 10.6355 22.3269C10.362 22.6004 10.2083 22.9713 10.2083 23.3581C10.2083 23.7449 10.362 24.1158 10.6355 24.3893C10.909 24.6628 11.2799 24.8164 11.6667 24.8164H23.3333C23.7201 24.8164 24.0911 24.6628 24.3645 24.3893C24.638 24.1158 24.7917 23.7449 24.7917 23.3581C24.7917 22.9713 24.638 22.6004 24.3645 22.3269C24.0911 22.0534 23.7201 21.8998 23.3333 21.8998H11.6667Z" fill="currentColor"/>
<path fill-rule="evenodd" clip-rule="evenodd" d="M32.0833 17.5C32.0833 25.5544 25.5544 32.0833 17.5 32.0833C9.44563 32.0833 2.91667 25.5544 2.91667 17.5C2.91667 9.44561 9.44563 2.91666 17.5 2.91666C25.5544 2.91666 32.0833 9.44561 32.0833 17.5ZM29.1667 17.5C29.1667 20.5942 27.9375 23.5616 25.7496 25.7496C23.5617 27.9375 20.5942 29.1667 17.5 29.1667C14.4058 29.1667 11.4383 27.9375 9.25043 25.7496C7.0625 23.5616 5.83334 20.5942 5.83334 17.5C5.83334 14.4058 7.0625 11.4383 9.25043 9.25041C11.4383 7.06249 14.4058 5.83332 17.5 5.83332C20.5942 5.83332 23.5617 7.06249 25.7496 9.25041C27.9375 11.4383 29.1667 14.4058 29.1667 17.5Z" fill="currentColor"/>
</svg>
