<svg width="29" height="29" viewBox="0 0 29 29" fill="none" xmlns="http://www.w3.org/2000/svg">
<path d="M21.5 12.0714H16.7857V7.35714C16.7857 6.73199 16.5374 6.13244 16.0953 5.69039C15.6533 5.24834 15.0537 5 14.4286 5C13.8034 5 13.2039 5.24834 12.7618 5.69039C12.3198 6.13244 12.0714 6.73199 12.0714 7.35714L12.1551 12.0714H7.35714C6.73199 12.0714 6.13244 12.3198 5.69039 12.7618C5.24834 13.2039 5 13.8034 5 14.4286C5 15.0537 5.24834 15.6533 5.69039 16.0953C6.13244 16.5374 6.73199 16.7857 7.35714 16.7857L12.1551 16.702L12.0714 21.5C12.0714 22.1252 12.3198 22.7247 12.7618 23.1668C13.2039 23.6088 13.8034 23.8571 14.4286 23.8571C15.0537 23.8571 15.6533 23.6088 16.0953 23.1668C16.5374 22.7247 16.7857 22.1252 16.7857 21.5V16.702L21.5 16.7857C22.1252 16.7857 22.7247 16.5374 23.1668 16.0953C23.6088 15.6533 23.8571 15.0537 23.8571 14.4286C23.8571 13.8034 23.6088 13.2039 23.1668 12.7618C22.7247 12.3198 22.1252 12.0714 21.5 12.0714Z" fill="currentColor"/>
</svg>
