<svg width="32" height="33" viewBox="0 0 32 33" fill="none" xmlns="http://www.w3.org/2000/svg">
<g clip-path="url(#clip0_3_9)">
<path d="M6.55067 10.3386C11.7707 5.071 20.2307 5.071 25.4493 10.3386L26.0773 10.9725C26.1393 11.0344 26.1887 11.1086 26.2223 11.1905C26.256 11.2725 26.2734 11.3606 26.2734 11.4496C26.2734 11.5386 26.256 11.6268 26.2223 11.7087C26.1887 11.7907 26.1393 11.8648 26.0773 11.9268L23.9293 14.0951C23.8984 14.1271 23.8616 14.1525 23.8211 14.1699C23.7806 14.1872 23.7372 14.1961 23.6933 14.1961C23.6495 14.1961 23.6061 14.1872 23.5656 14.1699C23.5251 14.1525 23.4883 14.1271 23.4573 14.0951L22.592 13.2234C18.952 9.548 13.0493 9.548 9.40933 13.2234L8.484 14.1584C8.42057 14.2218 8.33568 14.2573 8.24733 14.2573C8.15898 14.2573 8.0741 14.2218 8.01067 14.1584L5.86267 11.9886C5.80035 11.927 5.75077 11.8531 5.7169 11.7712C5.68302 11.6893 5.66556 11.6012 5.66556 11.5122C5.66556 11.4232 5.68302 11.3351 5.7169 11.2532C5.75077 11.1713 5.80035 11.0974 5.86267 11.0358L6.55067 10.3386ZM29.892 14.8253L31.804 16.7558C31.866 16.8177 31.9153 16.8918 31.949 16.9738C31.9827 17.0557 32 17.1439 32 17.2329C32 17.3219 31.9827 17.41 31.949 17.492C31.9153 17.5739 31.866 17.6481 31.804 17.71L23.1827 26.4151C23.0559 26.5416 22.8864 26.6122 22.71 26.6122C22.5336 26.6122 22.3641 26.5416 22.2373 26.4151L16.12 20.2373C16.0885 20.2048 16.0458 20.1866 16.0013 20.1866C15.9568 20.1866 15.9142 20.2048 15.8827 20.2373L9.764 26.4151C9.6372 26.5416 9.46772 26.6122 9.29133 26.6122C9.11495 26.6122 8.94547 26.5416 8.81867 26.4151L0.196001 17.71C0.133986 17.6481 0.0846752 17.5739 0.0509992 17.492C0.0173232 17.41 -3.05176e-05 17.3219 -3.05176e-05 17.2329C-3.05176e-05 17.1439 0.0173232 17.0557 0.0509992 16.9738C0.0846752 16.8918 0.133986 16.8177 0.196001 16.7558L2.108 14.8253C2.2348 14.6988 2.40429 14.6281 2.58067 14.6281C2.75705 14.6281 2.92653 14.6988 3.05333 14.8253L9.172 21.0031C9.23867 21.0691 9.344 21.0691 9.40933 21.0031L15.528 14.8253C15.6548 14.6988 15.8243 14.6281 16.0007 14.6281C16.177 14.6281 16.3465 14.6988 16.4733 14.8253L22.592 21.0031C22.6587 21.0691 22.7627 21.0691 22.8293 21.0031L28.948 14.8253C29.0743 14.6983 29.2436 14.6272 29.42 14.6272C29.5964 14.6272 29.7657 14.6983 29.892 14.8253Z" fill="currentColor"/>
</g>
</svg>
