<svg width="23" height="23" viewBox="0 0 23 23" fill="none" xmlns="http://www.w3.org/2000/svg">
<g id="octicon:link-16">
<path id="Vector" d="M11.1766 4.70781L12.9734 2.91094C13.4407 2.44372 13.9953 2.0731 14.6058 1.82025C15.2162 1.56739 15.8705 1.43724 16.5313 1.43724C17.192 1.43724 17.8463 1.56739 18.4567 1.82025C19.0672 2.0731 19.6219 2.44372 20.0891 2.91094C20.5563 3.37816 20.9269 3.93283 21.1798 4.54328C21.4326 5.15373 21.5628 5.808 21.5628 6.46875C21.5628 7.1295 21.4326 7.78378 21.1798 8.39423C20.9269 9.00468 20.5563 9.55935 20.0891 10.0266L16.4953 13.6203C16.0281 14.0876 15.4735 14.4582 14.863 14.7111C14.2526 14.964 13.5983 15.0941 12.9375 15.0941C12.2768 15.0941 11.6225 14.964 11.012 14.7111C10.4016 14.4582 9.8469 14.0876 9.3797 13.6203C9.18903 13.416 9.08515 13.1456 9.08998 12.8661C9.09481 12.5867 9.20796 12.3201 9.40557 12.1224C9.6032 11.9248 9.86985 11.8117 10.1493 11.8068C10.4287 11.802 10.6991 11.9059 10.9035 12.0966C11.1705 12.3639 11.4875 12.5759 11.8366 12.7206C12.1856 12.8653 12.5597 12.9398 12.9375 12.9398C13.3153 12.9398 13.6894 12.8653 14.0385 12.7206C14.3875 12.5759 14.7046 12.3639 14.9716 12.0966L18.5653 8.50281C19.0785 7.95808 19.3594 7.23483 19.3482 6.48649C19.3371 5.73816 19.0348 5.0236 18.5056 4.49438C17.9764 3.96517 17.2619 3.66294 16.5135 3.65179C15.7652 3.64065 15.0419 3.92147 14.4972 4.43469L12.7003 6.23156C12.496 6.42224 12.2256 6.52611 11.9462 6.52128C11.6667 6.51646 11.4001 6.40331 11.2024 6.20569C11.0048 6.00806 10.8917 5.74142 10.8869 5.46198C10.882 5.18254 10.9859 4.91215 11.1766 4.70781ZM4.4347 18.5653C4.70171 18.8326 5.01879 19.0447 5.36781 19.1894C5.71683 19.334 6.09094 19.4085 6.46876 19.4085C6.84658 19.4085 7.2207 19.334 7.56972 19.1894C7.91874 19.0447 8.23581 18.8326 8.50282 18.5653L10.2997 16.7684C10.504 16.5778 10.7744 16.4739 11.0539 16.4787C11.3333 16.4835 11.5999 16.5967 11.7976 16.7943C11.9952 16.9919 12.1083 17.2586 12.1132 17.538C12.118 17.8175 12.0141 18.0879 11.8235 18.2922L10.0266 20.0891C9.55936 20.5563 9.00469 20.9269 8.39424 21.1798C7.78379 21.4326 7.12951 21.5628 6.46876 21.5628C5.80802 21.5628 5.15374 21.4326 4.54329 21.1798C3.93284 20.9269 3.37817 20.5563 2.91095 20.0891C2.44373 19.6218 2.07311 19.0672 1.82026 18.4567C1.5674 17.8463 1.43726 17.192 1.43726 16.5313C1.43726 15.8705 1.5674 15.2162 1.82026 14.6058C2.07311 13.9953 2.44373 13.4407 2.91095 12.9734L6.5047 9.37969C6.9719 8.91244 7.52656 8.54179 8.13702 8.28892C8.74747 8.03604 9.40176 7.90589 10.0625 7.90589C10.7233 7.90589 11.3776 8.03604 11.988 8.28892C12.5985 8.54179 13.1531 8.91244 13.6203 9.37969C13.811 9.58402 13.9149 9.85442 13.91 10.1339C13.9052 10.4133 13.7921 10.6799 13.5944 10.8776C13.3968 11.0752 13.1302 11.1883 12.8507 11.1932C12.5713 11.198 12.3009 11.0941 12.0966 10.9034C11.8296 10.6361 11.5125 10.4241 11.1635 10.2794C10.8144 10.1347 10.4403 10.0602 10.0625 10.0602C9.68469 10.0602 9.31058 10.1347 8.96156 10.2794C8.61254 10.4241 8.29546 10.6361 8.02845 10.9034L4.4347 14.4972C4.16739 14.7642 3.95534 15.0813 3.81065 15.4303C3.66597 15.7793 3.5915 16.1534 3.5915 16.5313C3.5915 16.9091 3.66597 17.2832 3.81065 17.6322C3.95534 17.9812 4.16739 18.2983 4.4347 18.5653Z" fill="currentColor"/>
</g>
</svg>
