<svg width="33" height="33" viewBox="0 0 33 33" fill="none" xmlns="http://www.w3.org/2000/svg">
<g id="fluent:live-24-filled">
<path id="Vector" d="M8.72163 6.78976C8.84948 6.91746 8.9509 7.06911 9.02009 7.23603C9.08929 7.40295 9.1249 7.58188 9.1249 7.76258C9.1249 7.94327 9.08929 8.1222 9.02009 8.28912C8.9509 8.45604 8.84948 8.60769 8.72163 8.73539C6.65836 10.799 5.49926 13.5977 5.49926 16.5158C5.49926 19.434 6.65836 22.2326 8.72163 24.2963C8.85296 24.4231 8.95771 24.5748 9.02977 24.7426C9.10184 24.9103 9.13977 25.0908 9.14135 25.2733C9.14294 25.4559 9.10815 25.637 9.03901 25.806C8.96988 25.9749 8.86778 26.1285 8.73868 26.2576C8.60958 26.3867 8.45605 26.4888 8.28707 26.5579C8.11809 26.627 7.93703 26.6618 7.75446 26.6602C7.57189 26.6586 7.39146 26.6207 7.2237 26.5487C7.05595 26.4766 6.90422 26.3718 6.77738 26.2405C1.40526 20.8698 1.40526 12.1605 6.77738 6.78976C7.03524 6.53199 7.38491 6.38718 7.74951 6.38718C8.11411 6.38718 8.46378 6.53199 8.72163 6.78976ZM26.2281 6.78976C31.5989 12.1619 31.5989 20.8698 26.2281 26.2405C25.9703 26.4985 25.6206 26.6435 25.2558 26.6437C24.8911 26.6438 24.5412 26.499 24.2832 26.2412C24.0252 25.9834 23.8802 25.6336 23.88 25.2689C23.8799 24.9041 24.0247 24.5543 24.2825 24.2963C26.3458 22.2326 27.5049 19.434 27.5049 16.5158C27.5049 13.5977 26.3458 10.799 24.2825 8.73539C24.0245 8.47738 23.8796 8.12745 23.8796 7.76258C23.8796 7.3977 24.0245 7.04777 24.2825 6.78976C24.5405 6.53176 24.8904 6.38681 25.2553 6.38681C25.6202 6.38681 25.9701 6.53176 26.2281 6.78976ZM12.8013 10.7415C13.059 10.9994 13.2038 11.349 13.2038 11.7136C13.2038 12.0782 13.059 12.4279 12.8013 12.6858C12.3007 13.1863 11.9036 13.7805 11.6327 14.4345C11.3618 15.0885 11.2224 15.7894 11.2224 16.4973C11.2224 17.2051 11.3618 17.9061 11.6327 18.5601C11.9036 19.214 12.3007 19.8082 12.8013 20.3088C12.9289 20.4365 13.0302 20.5882 13.0992 20.755C13.1683 20.9219 13.2038 21.1008 13.2037 21.2814C13.2037 21.462 13.168 21.6408 13.0989 21.8076C13.0297 21.9745 12.9283 22.126 12.8006 22.2537C12.6728 22.3814 12.5212 22.4826 12.3543 22.5517C12.1874 22.6207 12.0086 22.6562 11.828 22.6562C11.6474 22.6561 11.4685 22.6205 11.3017 22.5513C11.1349 22.4821 10.9833 22.3808 10.8556 22.253C9.32915 20.7265 8.47158 18.6561 8.47158 16.4973C8.47158 14.3384 9.32915 12.2681 10.8556 10.7415C10.9833 10.6137 11.135 10.5123 11.3019 10.4431C11.4688 10.3739 11.6478 10.3382 11.8284 10.3382C12.0091 10.3382 12.1881 10.3739 12.355 10.4431C12.5219 10.5123 12.6736 10.6137 12.8013 10.7415ZM22.3685 10.7415C23.895 12.2681 24.7526 14.3384 24.7526 16.4973C24.7526 18.6561 23.895 20.7265 22.3685 22.253C22.1092 22.5035 21.7619 22.6421 21.4013 22.6389C21.0408 22.6358 20.6959 22.4912 20.441 22.2363C20.1861 21.9813 20.0415 21.6365 20.0383 21.2759C20.0352 20.9154 20.1738 20.5681 20.4243 20.3088C20.9248 19.8082 21.3219 19.214 21.5928 18.5601C21.8637 17.9061 22.0031 17.2051 22.0031 16.4973C22.0031 15.7894 21.8637 15.0885 21.5928 14.4345C21.3219 13.7805 20.9248 13.1863 20.4243 12.6858C20.1738 12.4264 20.0352 12.0791 20.0383 11.7186C20.0415 11.3581 20.1861 11.0132 20.441 10.7583C20.6959 10.5033 21.0408 10.3587 21.4013 10.3556C21.7619 10.3525 22.1092 10.491 22.3685 10.7415ZM16.6128 14.5503C17.1598 14.5503 17.6844 14.7676 18.0712 15.1544C18.458 15.5411 18.6753 16.0658 18.6753 16.6128C18.6753 17.1598 18.458 17.6844 18.0712 18.0712C17.6844 18.458 17.1598 18.6753 16.6128 18.6753C16.0658 18.6753 15.5411 18.458 15.1544 18.0712C14.7676 17.6844 14.5503 17.1598 14.5503 16.6128C14.5503 16.0658 14.7676 15.5411 15.1544 15.1544C15.5411 14.7676 16.0658 14.5503 16.6128 14.5503Z" fill="currentColor"/>
</g>
</svg>
